<?xml version="1.0" encoding="utf-8"?>
<!-- Generator: Adobe Illustrator 19.1.0, SVG Export Plug-In . SVG Version: 6.00 Build 0)  -->
<svg version="1.1" id="svg2" xmlns:svg="http://www.w3.org/2000/svg"
	 xmlns="http://www.w3.org/2000/svg" xmlns:xlink="http://www.w3.org/1999/xlink" x="0px" y="0px" viewBox="-157.5 128.3 320 480"
	 style="enable-background:new -157.5 128.3 320 480;" xml:space="preserve">
<style type="text/css">
	.st0{fill:#EC4223;}
	.st1{fill:#F9F206;}
	.st2{font-family:'OpenSans';}
	.st3{font-size:40.5143px;}
	.st4{font-family:'OpenSans-Bold';}
	.st5{fill:#FF0000;}
</style>
<rect x="-389.2" y="321.4" class="st0" width="152" height="152"/>
<g>
	<g id="layer1" transform="translate(-243.92718,-24.305148)">
		<g id="g2396" transform="translate(4.0406102,-207.08127)">
			<path id="path2404" class="st1" d="M-39.3,678.3c-0.2-0.2-0.4-19.5-0.4-42.8v-28.2v-14.1h-31c-17.1,0-31-0.2-31-0.4
				s1.9-3.4,4.1-7l4.1-6.6h34.4h34.4v49.4V678l-7.1,0.3C-35.7,678.5-39,678.5-39.3,678.3z"/>
		</g>
	</g>
	<polygon class="st1" points="-326,375.5 -314.9,397.9 -290.2,401.5 -308.1,418.9 -303.9,443.5 -326,431.9 -348.1,443.5 
		-343.9,418.9 -361.7,401.5 -337,397.9 	"/>
</g>
<text transform="matrix(1 0 0 1 -129.1833 347.7975)"><tspan x="0" y="0" class="st2 st3">Welcome to</tspan><tspan x="224" y="0" class="st4 st3"> </tspan><tspan x="0" y="48.6" class="st5 st4 st3">My China</tspan></text>
</svg>
